<svg width="361" height="61" viewBox="0 0 361 61" fill="none" xmlns="http://www.w3.org/2000/svg">
<mask id="path-1-outside-1_69_220" maskUnits="userSpaceOnUse" x="0" y="0" width="361" height="61" fill="black">
<rect fill="white" width="361" height="61"/>
<path d="M0 0H361V40C361 51.0457 352.046 60 341 60H20C8.95431 60 0 51.0457 0 40V0Z"/>
</mask>
<path d="M0 0H361V40C361 51.0457 352.046 60 341 60H20C8.95431 60 0 51.0457 0 40V0Z" fill="#000080"/>
<path d="M0 0H361H0ZM361 40C361 51.598 351.598 61 340 61H21C9.40202 61 0 51.598 0 40C0 50.4934 8.9543 59 20 59H341C352.046 59 361 50.4934 361 40ZM0 60V0V60ZM361 0V60V0Z" fill="black" mask="url(#path-1-outside-1_69_220)"/>
</svg>
